<?xml version="1.0" standalone="no"?>
<!DOCTYPE svg PUBLIC "-//W3C//DTD SVG 20010904//EN"
 "http://www.w3.org/TR/2001/REC-SVG-20010904/DTD/svg10.dtd">
<svg version="1.0" xmlns="http://www.w3.org/2000/svg"
 width="360.000000pt" height="450.000000pt" viewBox="0 0 360.000000 450.000000"
 preserveAspectRatio="xMidYMid meet">
<metadata>
Created by potrace 1.16, written by Peter Selinger 2001-2019
</metadata>
<g transform="translate(0.000000,450.000000) scale(0.100000,-0.100000)"
fill="#000000" stroke="none">
<path d="M2183 4309 c9 -5 17 -18 17 -27 0 -9 14 -25 31 -35 32 -18 34 -33 6
-51 -12 -8 -24 -6 -46 7 -46 27 -54 23 -49 -28 5 -42 4 -45 -18 -45 -13 0 -32
10 -44 22 -23 25 -27 53 -5 45 28 -11 25 11 -6 37 -18 16 -29 32 -25 41 8 23
-10 27 -70 15 -109 -23 -237 -27 -405 -15 -142 10 -282 -7 -368 -46 -35 -16
-68 -29 -73 -29 -6 0 -33 -12 -62 -26 -28 -14 -96 -44 -151 -66 -171 -67 -361
-214 -460 -353 -155 -218 -231 -526 -223 -907 4 -218 16 -259 76 -279 21 -6
62 -25 92 -40 30 -16 59 -29 64 -29 6 0 20 -10 33 -22 20 -19 27 -20 60 -10
33 10 44 9 89 -12 62 -28 68 -38 94 -151 25 -109 46 -149 109 -210 28 -27 51
-58 51 -68 0 -31 30 -77 56 -87 17 -7 53 -4 122 11 142 30 251 34 351 15 46
-9 121 -16 167 -16 57 0 84 -4 84 -12 0 -6 3 -8 6 -5 9 8 43 -16 58 -41 33
-55 72 -116 82 -126 29 -31 64 -99 64 -126 0 -39 -10 -41 -205 -38 l-160 3
-14 45 c-14 44 -44 79 -68 80 -7 0 -13 3 -13 8 0 22 -100 55 -160 52 -68 -3
-109 -1 -146 5 -31 5 -57 2 -100 -14 -35 -12 -60 -17 -62 -11 -6 17 -30 11
-49 -12 -14 -18 -29 -23 -63 -24 -57 0 -87 -7 -102 -22 -16 -16 -28 -15 -28 3
0 9 -6 12 -16 8 -11 -4 -12 -9 -5 -16 6 -6 11 -15 11 -20 0 -5 -7 -2 -15 7 -8
8 -15 20 -15 26 0 13 -30 46 -30 33 0 -4 -7 0 -15 11 -7 10 -18 15 -24 11 -6
-3 -11 1 -11 9 0 8 -11 23 -25 34 -14 11 -25 25 -25 31 0 6 -4 11 -9 11 -10 0
-31 -54 -31 -80 0 -9 -15 -30 -33 -48 -31 -30 -37 -32 -105 -32 -42 0 -88 6
-108 15 -20 8 -40 12 -45 9 -28 -17 19 -174 56 -188 8 -3 15 -12 15 -20 0 -8
6 -19 13 -23 6 -4 21 -24 31 -43 10 -19 27 -42 36 -50 9 -8 45 -53 79 -100 62
-86 90 -121 149 -187 17 -20 32 -39 32 -42 0 -3 18 -26 40 -51 90 -102 147
-165 173 -193 15 -17 27 -34 27 -38 0 -5 7 -9 15 -9 8 0 50 -35 92 -79 43 -43
88 -83 100 -90 13 -7 23 -21 23 -33 l0 -21 -23 20 c-12 11 -67 50 -122 88
-169 115 -317 238 -537 446 -125 118 -158 143 -158 121 0 -5 55 -62 122 -128
161 -157 295 -269 538 -449 118 -88 296 -233 322 -262 16 -18 16 -22 -9 -83
-14 -36 -36 -78 -48 -95 -34 -45 -57 -95 -51 -110 2 -7 -2 -22 -10 -33 -9 -13
-11 -23 -4 -27 5 -3 10 -15 10 -26 0 -19 12 -19 520 -19 290 0 520 4 520 9 0
5 -7 28 -16 52 -9 24 -20 74 -25 111 -4 37 -11 77 -14 90 -5 19 -1 27 17 36
22 11 42 23 158 89 135 77 347 185 480 243 41 18 104 46 140 62 36 16 92 41
125 56 81 35 548 271 559 282 34 34 -37 3 -300 -128 -165 -82 -328 -162 -363
-177 -35 -14 -80 -35 -100 -46 -19 -10 -40 -19 -44 -19 -12 0 -349 -166 -417
-206 -30 -17 -65 -35 -77 -38 -20 -6 -23 -4 -23 18 0 16 -6 26 -15 26 -8 0
-15 -4 -15 -9 0 -5 -8 -7 -18 -4 -14 3 -18 13 -16 39 2 25 -1 34 -13 34 -13 0
-13 3 -3 15 7 8 16 12 21 9 5 -3 9 2 9 10 0 9 5 16 11 16 5 0 8 4 5 8 -8 13
117 131 244 232 45 35 90 75 239 209 80 72 212 223 292 333 21 29 49 66 61 83
13 16 55 92 94 170 l71 140 54 6 c105 12 195 59 272 142 l37 40 0 339 0 339
-52 24 c-58 27 -139 33 -183 13 -37 -17 -52 1 -35 41 7 17 16 31 19 31 4 0 18
32 30 70 13 39 27 70 32 70 39 0 35 326 -7 493 -53 210 -104 340 -177 446 -78
114 -233 234 -369 287 -40 16 -101 46 -135 67 -82 51 -232 104 -350 123 -52 8
-114 21 -137 29 -49 18 -80 20 -53 4z m-908 -1389 c5 -9 -130 -79 -183 -95
-34 -10 -174 -153 -208 -211 -32 -55 -55 -77 -68 -64 -15 15 -2 192 19 234 33
68 114 111 256 135 75 12 177 13 184 1z m849 -284 c63 -26 100 -83 126 -195
15 -64 16 -469 2 -497 -12 -23 -28 -63 -36 -86 -3 -9 -17 -25 -33 -35 -34 -23
-173 -23 -250 0 -50 15 -133 63 -133 77 0 4 -26 28 -59 54 -36 29 -66 63 -77
88 l-18 40 29 57 c16 31 50 76 76 101 58 57 69 77 80 156 25 176 167 293 293
240z m666 -41 c7 -8 23 -15 36 -15 13 0 27 -6 31 -14 4 -7 18 -18 31 -25 28
-15 31 -70 5 -93 -77 -66 -237 -99 -195 -40 37 53 52 94 52 147 0 57 14 71 40
40z m-1169 -335 c-18 -54 -67 -106 -118 -126 -69 -27 -368 -27 -460 0 -34 10
-64 24 -67 32 -6 17 55 92 72 86 6 -2 12 1 12 7 0 6 11 11 25 11 14 0 25 -4
25 -10 0 -11 32 -1 42 14 4 7 23 6 57 -3 28 -7 56 -9 62 -5 9 5 10 1 7 -14 -8
-28 10 -28 58 -1 26 14 40 17 47 10 8 -8 15 -7 26 3 17 15 111 28 111 16 0 -4
17 -10 38 -12 28 -4 40 0 51 14 18 27 25 15 12 -22z m-1006 -580 c76 -137 110
-196 115 -200 4 -3 23 -29 43 -59 36 -52 110 -146 131 -166 15 -14 131 -146
198 -226 80 -94 168 -231 178 -275 5 -21 6 -50 3 -66 l-6 -28 -17 32 c-10 18
-21 33 -26 33 -16 0 -74 46 -74 59 0 19 -35 56 -53 56 -9 0 -19 5 -22 11 -4 5
-18 15 -32 20 -14 5 -23 15 -20 22 3 8 -10 21 -31 32 -51 26 -172 115 -172
126 0 5 -8 17 -17 27 -45 47 -93 104 -93 112 0 4 -7 14 -17 21 -21 18 -93 115
-93 126 0 5 -18 29 -40 53 -22 25 -40 48 -40 52 0 5 -16 25 -36 45 -54 56
-104 119 -104 129 0 5 -10 16 -22 24 -22 14 -17 15 64 20 69 4 93 10 115 27
34 27 50 25 68 -7z"/>
<path d="M85 2466 c-17 -7 -43 -28 -58 -45 -27 -32 -27 -34 -27 -179 1 -142 1
-146 16 -107 8 22 21 61 28 87 14 52 54 110 94 136 33 22 127 21 172 -1 36
-19 70 -22 70 -8 0 5 -19 29 -43 53 -67 69 -177 97 -252 64z"/>
<path d="M232 2283 c-35 -7 -90 -68 -97 -107 -8 -40 -2 -65 26 -100 20 -25 69
-37 69 -16 0 6 3 9 8 9 20 -3 32 2 32 16 0 8 7 15 15 15 8 0 15 4 15 9 0 5 6
11 14 14 10 4 12 -4 9 -34 -3 -26 -1 -39 7 -39 8 0 11 9 8 25 -4 19 4 36 32
68 42 48 60 78 60 102 0 11 -5 15 -16 11 -8 -3 -25 1 -37 9 -24 15 -108 26
-145 18z"/>
</g>
</svg>
