<?xml version="1.0" standalone="no"?>
<!DOCTYPE svg PUBLIC "-//W3C//DTD SVG 20010904//EN"
 "http://www.w3.org/TR/2001/REC-SVG-20010904/DTD/svg10.dtd">
<svg version="1.0" xmlns="http://www.w3.org/2000/svg"
 width="800.000000pt" height="1088.000000pt" viewBox="0 0 800.000000 1088.000000"
 preserveAspectRatio="xMidYMid meet">
<metadata>
Created by potrace 1.16, written by Peter Selinger 2001-2019
</metadata>
<g transform="translate(0.000000,1088.000000) scale(0.100000,-0.100000)"
fill="#000000" stroke="none">
<path d="M0 10715 l0 -165 83 2 c45 1 63 3 40 5 -74 7 -47 23 37 23 l80 0 0
30 0 30 118 -4 c64 -2 100 -2 80 1 -68 8 -40 23 42 23 l80 0 0 31 0 31 78 -4
c42 -3 60 -3 40 -1 -68 7 -40 23 42 23 l80 0 0 31 0 31 78 -4 c42 -3 60 -3 40
-1 -68 7 -40 23 42 23 l80 0 0 30 0 30 -520 0 -520 0 0 -165z"/>
<path d="M6880 10850 l0 -30 80 0 c82 0 110 -16 43 -23 -21 -2 -3 -2 40 1 52
3 77 1 77 -7 0 -6 17 -11 40 -11 33 0 40 -3 40 -20 0 -17 7 -20 40 -20 72 0
42 -19 -37 -23 -43 -2 -7 -3 80 -2 l157 3 0 -29 0 -29 80 0 c81 0 111 -16 43
-22 -21 -2 15 -2 80 1 l117 4 0 -31 0 -32 80 0 c82 0 110 -15 43 -23 -21 -2
-12 -3 20 -1 42 3 57 0 57 -10 0 -7 9 -21 20 -31 20 -18 20 -17 20 173 l0 192
-560 0 -560 0 0 -30z"/>
<path d="M3420 10253 c-115 -75 -210 -199 -289 -378 -41 -93 -81 -261 -81
-341 0 -40 2 -44 24 -44 22 0 23 4 29 83 7 119 33 207 97 332 103 203 160 272
277 337 45 25 61 38 46 38 -12 0 -27 2 -35 5 -7 2 -38 -12 -68 -32z"/>
<path d="M2913 10182 c-81 -43 -232 -304 -288 -497 -27 -94 -44 -225 -29 -225
26 1 37 28 59 136 45 232 137 416 274 549 58 57 51 73 -16 37z"/>
<path d="M2825 9430 c-271 -19 -585 -76 -585 -105 0 -19 23 -40 59 -55 l31
-12 -20 -28 c-31 -44 -43 -123 -37 -235 7 -118 21 -171 47 -185 24 -13 136
-29 148 -21 5 3 23 40 40 81 48 116 81 169 147 235 66 65 155 119 162 98 2 -7
10 -10 16 -7 7 2 27 -19 45 -49 25 -42 32 -64 32 -107 1 -30 7 -73 15 -95 10
-26 11 -43 4 -51 -7 -8 -7 -14 1 -19 37 -23 -33 -86 -158 -144 -43 -20 -50
-27 -40 -39 20 -23 40 -85 39 -118 -2 -52 16 -58 137 -50 192 14 276 23 350
40 55 12 82 14 110 7 28 -8 41 -7 59 4 27 18 29 33 6 42 -10 3 -36 14 -59 24
-51 24 -69 24 -91 0 -19 -20 -88 -52 -96 -45 -2 2 -52 -3 -111 -12 -84 -12
-110 -13 -122 -4 -18 16 -18 22 5 46 10 12 22 34 25 50 4 17 15 44 26 61 l19
31 198 4 198 3 88 43 c49 23 94 42 100 42 7 0 23 9 37 20 14 11 36 20 50 20
14 0 43 9 65 20 71 36 85 24 85 -72 0 -28 -6 -52 -15 -62 -8 -8 -15 -22 -15
-30 0 -9 -8 -16 -20 -16 -11 0 -20 -5 -20 -11 0 -6 -19 -30 -42 -54 -45 -44
-51 -51 -108 -125 -41 -54 -80 -90 -97 -90 -7 0 -13 -4 -13 -9 0 -5 -14 -14
-31 -21 -20 -9 -28 -18 -24 -28 3 -9 0 -12 -7 -9 -20 7 -58 -11 -58 -28 0 -15
-4 -17 -54 -19 -31 -1 -50 -26 -20 -26 18 0 18 -1 1 -17 -17 -17 -19 -17 -28
-1 -8 14 -14 15 -34 6 -14 -6 -25 -14 -25 -18 0 -12 -102 -28 -137 -23 -27 4
-33 2 -33 -12 0 -16 9 -17 113 -12 61 3 133 13 159 21 77 24 139 -2 137 -58 0
-26 -2 -28 -9 -11 l-9 20 0 -20 c-1 -17 -3 -17 -11 -5 -9 13 -10 13 -10 0 0
-9 5 -21 11 -27 8 -8 8 -13 0 -18 -6 -3 -10 -3 -9 2 2 4 -2 9 -7 9 -12 2 -58
-18 -65 -27 -4 -6 -118 -34 -130 -32 -3 0 -32 3 -65 7 l-60 6 39 -15 c22 -8
81 -19 132 -24 73 -6 102 -14 139 -36 l47 -27 46 22 c99 50 253 16 260 -57 2
-17 -2 -34 -7 -37 -6 -4 -9 -12 -7 -19 1 -7 1 -9 -1 -4 -10 17 -20 4 -33 -43
-13 -49 -37 -71 -51 -48 -6 9 -10 8 -15 -6 -4 -11 -2 -21 7 -27 8 -5 9 -9 3
-9 -6 0 -16 -11 -22 -25 -15 -32 -15 -35 -2 -35 6 0 10 7 10 16 0 8 4 13 10 9
5 -3 7 -13 4 -23 -4 -11 -1 -10 8 4 7 12 19 19 27 16 8 -2 11 0 8 5 -3 5 0 10
8 10 8 0 12 -4 9 -9 -4 -5 0 -9 7 -7 8 1 26 1 42 0 24 -1 27 -5 27 -33 -1 -30
-2 -31 -14 -15 -16 21 -26 22 -26 2 0 -8 -6 -14 -12 -13 -9 2 -12 -8 -10 -33
2 -26 -2 -38 -13 -43 -16 -6 -17 -1 -17 54 l1 35 -10 -40 c-5 -22 -11 -44 -12
-50 -14 -43 -37 -119 -37 -123 0 -2 7 1 15 8 13 10 15 9 15 -9 0 -15 -4 -20
-12 -15 -10 6 -10 4 -2 -7 6 -8 12 -51 13 -96 2 -70 0 -83 -13 -83 -18 0 -22
-25 -6 -35 13 -8 13 -51 0 -75 -16 -29 -48 -44 -65 -30 -9 7 -20 8 -30 3 -14
-8 -13 -11 4 -27 15 -14 30 -17 56 -13 32 5 35 4 31 -16 -3 -12 -8 -44 -11
-72 -4 -27 -9 -63 -11 -80 -5 -42 -80 -392 -92 -435 -6 -19 -23 -66 -37 -105
-38 -96 -65 -175 -63 -183 1 -4 -3 -18 -9 -32 -13 -32 -26 -104 -13 -75 35 82
155 450 165 508 4 20 10 37 14 37 3 0 6 12 7 28 1 35 13 123 18 131 3 4 7 27
11 51 3 25 8 52 11 61 7 24 16 81 15 102 0 9 3 17 7 17 4 0 7 15 6 33 0 17 2
36 5 42 3 5 6 16 7 25 1 8 5 40 9 70 6 50 14 131 16 170 0 8 3 22 6 30 8 19
10 29 11 58 2 16 8 22 25 21 12 0 16 -3 9 -6 -6 -2 -9 -10 -5 -16 11 -16 12
-77 1 -77 -11 0 -10 -38 2 -45 6 -3 10 -25 11 -48 1 -41 1 -41 12 -14 9 22 17
27 43 27 18 0 35 -4 39 -9 3 -5 31 -7 62 -4 l56 6 -6 -54 c-3 -30 -9 -65 -13
-79 -7 -23 -6 -24 9 -11 15 12 17 12 11 -3 -10 -25 -37 -36 -78 -29 -20 3 -36
1 -36 -4 0 -21 27 -33 72 -33 36 0 52 5 69 23 l21 22 -7 -24 c-5 -15 -3 -26 6
-32 12 -8 11 -11 -1 -19 -13 -8 -13 -10 2 -10 14 0 15 -4 7 -30 -6 -16 -19
-32 -30 -35 -15 -5 -19 -16 -19 -50 0 -24 -5 -47 -10 -50 -6 -4 -10 -28 -9
-53 1 -26 -5 -63 -14 -83 -20 -47 -34 -189 -18 -189 7 0 10 -40 10 -120 -1
-66 -5 -120 -10 -120 -5 0 -9 -14 -9 -30 0 -27 -15 -65 -30 -80 -22 -21 -28
-63 -18 -119 11 -59 5 -89 -11 -62 -17 27 -23 -45 -7 -77 13 -24 13 -52 5
-183 -10 -160 -13 -189 -24 -226 -5 -14 -3 -23 3 -23 7 0 9 -36 7 -102 -4
-126 -4 -128 -15 -103 -8 18 -9 17 -9 -7 -1 -16 4 -28 9 -28 6 0 10 -9 10 -20
0 -10 6 -23 13 -27 8 -4 17 -16 20 -26 6 -15 3 -17 -12 -12 -11 3 -22 1 -26
-5 -10 -16 14 -40 32 -33 11 4 14 1 11 -13 -2 -10 -8 -18 -14 -17 -5 1 -9 -20
-10 -45 -1 -66 -7 -92 -19 -92 -5 0 -3 -5 5 -10 8 -5 40 -10 70 -11 57 -1 167
-15 140 -18 -21 -2 -790 49 -817 55 -13 2 -23 11 -23 19 0 8 -5 15 -11 15 -5
0 -8 4 -5 9 3 4 -1 17 -9 27 -13 17 -13 14 -8 -30 5 -44 4 -48 -10 -35 -8 8
-13 17 -10 22 2 4 -3 7 -12 7 -9 0 -14 4 -11 8 3 5 -2 22 -12 38 -12 22 -16
54 -16 132 0 56 -1 102 -2 102 -1 0 -12 -31 -23 -69 -20 -67 -41 -100 -41 -67
0 9 -5 16 -11 16 -7 0 -10 -12 -7 -30 4 -28 2 -30 -27 -30 -34 0 -95 -26 -95
-40 0 -11 -65 -30 -102 -30 -18 0 -28 5 -28 15 0 8 -7 15 -16 15 -8 0 -12 -4
-9 -10 3 -5 0 -10 -8 -10 -8 0 -17 9 -20 21 -8 31 -28 13 -21 -19 12 -55 16
-62 32 -62 15 0 17 -10 13 -81 -2 -59 0 -80 8 -75 6 4 9 10 7 14 -2 4 14 8 36
10 22 1 50 8 62 14 31 18 129 28 346 34 188 6 221 4 380 -26 25 -5 68 -12 95
-15 61 -9 69 -13 55 -30 -6 -7 -8 -19 -5 -27 3 -8 -1 -21 -10 -28 -8 -7 -15
-9 -16 -4 -1 19 -18 -33 -18 -58 -1 -16 -5 -28 -11 -28 -5 0 -10 -10 -10 -22
0 -17 3 -19 9 -10 6 10 11 6 19 -17 10 -28 9 -31 -9 -31 -10 0 -19 -4 -19 -10
0 -5 -24 -16 -54 -25 -51 -15 -54 -18 -65 -58 -14 -53 -19 -61 -58 -81 -24
-12 -33 -23 -33 -41 0 -16 -6 -25 -15 -25 -8 0 -15 -4 -15 -10 0 -5 -11 -10
-25 -10 -14 0 -25 5 -25 10 0 6 -6 10 -14 10 -8 0 -17 6 -19 13 -4 8 -6 9 -6
0 -1 -6 6 -19 16 -28 14 -14 14 -18 2 -26 -11 -7 -19 7 -36 64 -13 39 -23 79
-23 87 0 8 -7 33 -15 55 l-14 40 -1 -50 c0 -27 7 -85 15 -128 18 -92 18 -97 5
-77 -8 12 -10 8 -11 -15 -1 -17 -3 -22 -6 -12 -3 12 -11 15 -29 11 -15 -4 -34
0 -52 12 -45 31 -94 45 -167 48 -39 2 -71 9 -73 15 -2 6 -27 11 -55 11 -64 0
-99 9 -90 23 4 6 0 8 -10 4 -14 -5 -15 -1 -10 26 3 18 3 29 -1 26 -4 -4 -9
-85 -11 -180 -2 -96 -6 -199 -9 -229 -4 -43 -4 -47 3 -17 9 40 21 60 21 34 0
-10 8 -17 18 -17 12 0 14 -2 4 -8 -9 -6 -5 -12 14 -20 17 -8 24 -18 20 -27 -3
-8 -1 -15 4 -15 6 0 10 7 10 15 0 9 6 12 15 9 8 -4 15 -13 15 -21 0 -8 -4 -11
-10 -8 -5 3 -10 1 -10 -6 0 -7 11 -9 35 -5 40 8 103 -17 113 -43 3 -9 12 -21
21 -27 18 -14 25 -55 9 -51 -7 1 -13 -8 -14 -20 -1 -14 4 -23 12 -23 19 0 18
-24 -1 -40 -8 -7 -15 -19 -15 -26 0 -8 -4 -14 -10 -14 -5 0 -10 -10 -10 -21 0
-16 -5 -20 -20 -16 -12 3 -24 -1 -30 -11 -5 -10 -10 -13 -10 -8 0 6 -9 0 -20
-12 -12 -13 -20 -35 -20 -57 0 -24 -4 -35 -15 -35 -8 0 -15 -6 -16 -12 -10
-187 -11 -195 -33 -165 -7 9 -23 17 -35 17 -18 0 -21 6 -21 40 0 29 -4 40 -15
40 -11 0 -15 -11 -15 -40 0 -29 4 -40 15 -40 9 0 15 -9 15 -21 0 -12 7 -27 15
-33 22 -17 23 -125 0 -164 -14 -24 -26 -31 -56 -34 -40 -4 -49 4 -49 43 0 10
4 19 9 19 5 0 9 17 8 37 -1 20 4 38 11 41 17 5 15 29 -3 35 -19 8 -26 -5 -30
-56 -2 -23 -6 -54 -10 -70 -4 -15 -3 -33 3 -40 6 -6 12 -23 14 -37 3 -22 7
-24 46 -22 47 4 50 -2 22 -38 l-20 -25 -19 24 c-14 18 -20 21 -24 10 -4 -11
-6 -11 -6 -1 -1 21 -31 -13 -31 -35 0 -15 2 -16 11 -3 8 12 9 12 7 -5 -1 -11
1 -26 6 -33 4 -7 5 -16 1 -20 -3 -3 -10 0 -14 7 -5 7 -11 9 -14 5 -3 -5 -15
-92 -27 -194 -100 -858 -122 -1032 -131 -1022 -14 14 -60 317 -66 432 -5 99
-8 117 -21 113 -11 -5 -13 -20 -9 -76 2 -40 1 -63 -4 -56 -5 8 -9 41 -10 74
l-2 60 -7 -65 c-3 -36 -2 -80 3 -99 5 -18 6 -54 2 -80 -3 -29 0 -68 10 -104 8
-32 15 -72 15 -90 0 -18 12 -129 26 -247 26 -209 27 -217 10 -281 -17 -67 -14
-88 16 -131 10 -14 8 -22 -15 -46 -26 -27 -27 -29 -10 -44 10 -9 63 -35 118
-58 55 -23 106 -50 113 -59 26 -34 75 -81 85 -81 5 0 15 7 21 15 32 42 608
278 811 331 145 38 104 51 540 -176 97 -50 606 -336 664 -371 11 -8 21 -20 21
-27 0 -23 19 -2 28 31 5 21 15 33 28 34 10 1 39 7 64 13 25 6 78 14 119 18 44
5 76 13 79 20 2 7 14 12 27 12 16 0 24 6 23 17 0 18 11 167 32 433 6 74 15
164 20 200 17 117 39 253 55 340 18 92 32 208 40 335 3 44 10 82 15 83 6 2 10
13 10 25 -1 22 -1 22 -15 3 -8 -11 -15 -16 -15 -11 0 5 -7 0 -15 -11 -14 -17
-14 -16 0 13 8 18 15 49 16 70 0 35 1 36 11 16 17 -34 32 -28 24 10 -4 17 -9
61 -10 97 -2 36 -2 52 1 35 2 -16 7 -37 10 -45 3 -8 8 -28 10 -45 9 -64 15
-36 10 43 -4 50 -3 82 3 82 6 0 10 6 10 14 0 8 4 16 9 18 5 2 11 12 13 23 3
17 -3 20 -44 23 l-46 3 -11 -51 c-6 -28 -12 -101 -13 -163 l-2 -112 -6 95 -6
95 -4 -75 c-2 -41 -4 -88 -5 -105 0 -16 -4 -37 -7 -45 -13 -29 -46 -176 -58
-255 -6 -44 -16 -105 -21 -135 -5 -30 -18 -124 -29 -209 -11 -84 -24 -160 -29
-169 -13 -23 -14 -20 -76 312 -8 44 -19 96 -25 115 -5 20 -21 92 -34 161 -14
69 -32 157 -41 196 -41 196 -69 471 -85 844 -11 252 -47 800 -55 838 -3 12 -2
22 2 22 5 0 27 -49 49 -108 23 -59 65 -166 95 -238 47 -116 55 -130 67 -115
13 15 13 15 8 -1 -3 -10 -1 -18 4 -18 5 0 7 -8 4 -17 -5 -14 -4 -15 4 -4 10
14 -5 81 -21 92 -5 3 -8 9 -7 13 1 4 -3 19 -8 34 -6 15 -27 72 -47 127 -20 55
-47 123 -60 150 -46 100 -96 241 -102 286 -7 62 14 532 29 636 l12 82 18 -29
c9 -16 51 -90 93 -164 71 -128 125 -202 125 -172 0 15 -13 40 -149 282 -56
100 -104 195 -107 210 -14 91 -52 252 -101 428 -78 285 -81 297 -73 294 4 -2
36 -39 70 -83 86 -109 170 -205 180 -205 9 0 -1 48 -19 93 -9 23 -8 27 5 27
16 0 -41 75 -106 141 -14 14 -62 66 -108 117 l-83 91 -33 123 c-19 68 -57 222
-85 343 -28 121 -55 236 -61 254 -5 19 -7 37 -5 39 2 3 35 -22 72 -55 104 -91
196 -163 202 -157 6 5 -30 38 -185 170 l-100 85 -27 121 c-15 66 -25 123 -22
126 5 6 125 -53 500 -246 649 -334 702 -364 1168 -667 77 -50 186 -123 243
-162 57 -40 106 -73 109 -73 4 0 13 6 21 14 16 17 166 66 199 66 12 0 50 -11
85 -25 49 -19 66 -22 72 -13 4 7 29 53 54 101 43 84 45 89 29 107 -36 40 16
155 69 155 21 -1 26 3 24 20 -2 14 -20 26 -63 43 -33 12 -99 41 -147 65 -83
40 -88 44 -88 74 0 37 -25 56 -76 58 l-31 1 23 -43 c36 -63 29 -68 -20 -18
-47 47 -59 55 -50 30 4 -8 9 -15 13 -15 10 0 43 -71 36 -78 -3 -4 -16 7 -29
23 -22 27 -24 28 -40 12 -10 -9 -22 -17 -27 -17 -14 0 -68 -51 -74 -69 -5 -18
-76 -41 -125 -41 -30 0 -118 36 -180 75 -19 11 -51 27 -70 35 -53 20 -123 53
-140 65 -8 7 -31 18 -50 25 -68 26 -151 63 -195 88 -11 7 -58 30 -105 52 -47
22 -107 53 -135 70 -111 65 -223 122 -245 125 -27 3 -70 24 -70 34 0 6 -6 8
-14 5 -17 -7 -66 44 -66 68 0 14 8 18 35 18 24 0 35 5 35 14 0 21 27 26 96 18
33 -5 76 -4 95 1 l34 10 -130 62 c-204 99 -326 158 -519 249 -98 47 -184 90
-190 96 -15 16 16 2 289 -124 322 -150 335 -156 340 -156 3 0 50 -20 106 -45
56 -26 103 -44 105 -42 3 2 -59 32 -137 67 -125 55 -226 103 -577 272 -46 22
-82 42 -79 44 5 5 27 -5 362 -161 88 -41 298 -131 470 -201 61 -25 123 -51
139 -59 32 -15 71 -9 43 6 -8 5 -23 10 -33 12 -11 2 -62 24 -114 50 -108 53
-378 173 -715 320 -126 54 -250 108 -275 119 -26 12 -53 32 -62 48 -9 16 -40
42 -69 59 l-52 29 -2 60 c-1 39 -8 70 -22 93 l-20 35 104 130 c178 221 245
312 386 522 140 207 162 251 110 216 -50 -33 -166 -95 -250 -134 -46 -21 -83
-44 -83 -50 0 -22 -107 -237 -187 -376 -44 -76 -99 -177 -123 -224 -41 -83
-75 -130 -92 -130 -5 0 0 13 12 30 20 29 21 36 14 212 -4 123 -3 218 5 288 12
98 39 233 56 273 5 13 2 17 -12 17 -20 0 -25 -5 -95 -95 -103 -133 -405 -387
-500 -421 l-43 -15 32 33 c62 65 65 122 7 162 l-33 22 57 28 c170 85 357 281
383 403 16 78 13 344 -5 463 -15 95 -9 136 12 83 6 -15 13 -37 16 -48 3 -11 4
-6 2 10 -2 17 -7 38 -11 48 -4 10 -3 17 3 17 6 0 15 -12 21 -27 l11 -28 -5 26
-5 26 45 -10 c38 -9 45 -14 45 -34 0 -25 4 -26 35 -13 18 8 18 9 -5 9 -16 1
-21 4 -14 11 7 7 28 4 65 -10 33 -12 42 -18 22 -14 -18 3 -33 1 -33 -4 0 -5 6
-9 13 -9 6 0 27 -3 46 -8 27 -6 32 -4 25 6 -6 12 -5 12 9 0 9 -7 17 -19 16
-25 0 -6 -3 -6 -6 2 -4 10 -8 10 -19 1 -8 -6 -27 -9 -44 -7 -16 3 -30 1 -30
-4 0 -4 5 -8 10 -8 6 0 10 -7 10 -15 0 -8 -4 -15 -8 -15 -4 0 -16 -14 -27 -32
-23 -40 -32 -20 -11 24 9 17 15 32 14 34 -8 7 -103 -25 -104 -35 -1 -6 -2 -19
-3 -28 -1 -16 -3 -16 -11 -3 -8 12 -10 10 -10 -10 0 -19 -3 -21 -9 -11 -7 11
-11 6 -15 -20 -7 -39 -4 -99 5 -93 4 2 9 -36 13 -84 10 -127 23 -169 59 -194
l30 -21 -7 29 c-20 85 -18 118 8 157 14 21 26 43 26 48 0 6 7 18 16 26 13 13
13 17 2 24 -12 8 -4 13 15 10 5 -1 6 3 2 8 -7 13 72 72 143 108 30 14 60 37
69 50 29 43 71 20 103 -58 12 -29 16 -31 52 -25 64 10 126 46 138 79 12 36
-16 109 -49 127 -36 19 -161 57 -261 80 -52 12 -149 34 -215 50 -202 48 -366
67 -349 39 5 -9 -8 -10 -47 -5 -86 10 -723 15 -844 6z m300 -223 c23 -20 26
-28 20 -55 -9 -43 -39 -61 -106 -64 l-54 -3 -3 58 c-2 32 2 64 7 71 6 7 33 14
60 15 39 1 55 -4 76 -22z m568 -5237 c18 0 18 -16 13 -347 -4 -286 -3 -338 7
-291 7 31 15 60 19 63 4 4 4 13 2 20 -3 7 -1 16 5 20 7 4 11 92 11 265 0 233
2 259 16 253 13 -5 13 -7 2 -14 -10 -7 -9 -9 5 -9 10 0 15 -5 12 -11 -4 -6 1
-13 11 -15 11 -3 26 -19 35 -37 8 -17 22 -32 30 -35 12 -3 12 -2 -1 7 -8 5
-11 13 -8 17 18 17 125 -232 174 -406 14 -52 59 -201 99 -330 41 -129 85 -273
99 -320 13 -47 37 -123 51 -170 79 -254 227 -752 301 -1015 141 -498 154 -546
154 -561 0 -41 62 -124 92 -124 14 0 18 -8 18 -40 0 -35 -3 -40 -24 -40 -42 0
-103 28 -205 92 -55 35 -110 71 -123 81 -26 20 -220 158 -258 185 -149 101
-375 280 -397 314 l-27 40 -2 222 c-2 204 -9 345 -20 355 -2 2 -4 -9 -5 -25 0
-16 -3 -23 -6 -16 -2 6 -9 9 -15 6 -6 -4 -14 0 -19 7 -8 12 -11 12 -19 -1 -5
-8 -10 -10 -10 -5 -1 6 -7 -3 -15 -20 -12 -27 -14 -7 -16 180 -2 202 -2 206
-10 100 -5 -60 -12 -261 -16 -446 l-8 -336 -30 -49 c-41 -65 -105 -112 -255
-187 -180 -90 -229 -110 -215 -87 3 6 2 10 -3 10 -5 0 -12 -8 -15 -18 -2 -11
-14 -21 -26 -25 -14 -3 -19 -1 -14 6 4 6 8 30 10 52 2 22 11 92 19 155 8 63
18 142 21 175 3 33 9 62 13 65 5 3 10 41 14 85 5 77 5 78 -7 35 -8 -29 -16
-40 -21 -32 -11 19 -23 6 -30 -32 -4 -19 -17 -54 -31 -79 -24 -47 -45 -135
-45 -194 0 -18 -9 -53 -20 -76 -13 -28 -21 -69 -23 -113 -3 -79 -9 -94 -40
-95 -17 -1 -18 -2 -5 -6 10 -2 32 3 50 11 17 9 36 16 42 16 10 0 -143 -80
-153 -80 -2 0 6 8 17 19 27 23 28 35 2 21 -18 -9 -19 -7 -14 27 2 21 9 55 15
76 6 21 17 75 25 120 18 98 40 206 53 267 6 25 17 90 26 145 13 87 26 147 65
305 4 19 18 80 30 135 12 55 25 109 30 120 4 11 22 79 40 150 17 72 37 148 45
170 7 22 25 85 40 140 15 55 43 146 62 203 18 57 38 122 43 145 10 46 75 244
95 292 7 17 34 93 59 170 26 77 53 154 60 170 7 17 24 65 37 108 21 68 26 77
44 73 11 -3 28 -6 38 -6z"/>
<path d="M2508 8492 c-77 -78 -108 -122 -108 -153 0 -15 71 -89 86 -89 7 0 18
9 25 21 9 19 6 25 -25 51 l-36 29 29 43 c17 24 54 69 84 100 43 46 51 60 43
72 -10 12 -26 0 -98 -74z"/>
<path d="M3440 7061 c-59 -30 -83 -41 -92 -41 -6 0 -27 -13 -47 -28 -20 -15
-54 -36 -76 -46 -22 -11 -47 -23 -55 -27 -48 -27 -89 -42 -117 -42 -18 -1 -33
-5 -33 -9 0 -4 -9 -8 -20 -8 -10 0 -23 -6 -27 -12 -4 -7 -42 -30 -83 -51 -80
-41 -99 -52 -142 -79 -14 -10 -32 -18 -40 -18 -8 0 -24 -9 -36 -20 -12 -11
-29 -20 -38 -20 -9 0 -28 -9 -44 -20 -15 -11 -30 -17 -33 -14 -3 3 -38 -11
-78 -32 -40 -21 -78 -39 -84 -39 -19 -2 -65 -24 -65 -33 0 -4 -12 -13 -27 -20
-16 -7 -50 -26 -78 -42 -27 -15 -55 -29 -62 -29 -18 -1 -100 -59 -106 -75 -3
-8 -19 -17 -35 -21 -17 -3 -33 -13 -36 -21 -3 -8 -14 -14 -24 -14 -10 0 -42
-16 -72 -35 -30 -19 -60 -35 -67 -35 -7 0 -29 -12 -50 -26 -21 -14 -51 -28
-66 -31 -22 -5 -33 -16 -47 -49 -23 -53 -39 -62 -98 -54 -47 6 -47 6 -47 -23
0 -19 -7 -34 -20 -41 -68 -39 -212 -135 -224 -150 -21 -26 -21 -55 2 -94 14
-23 25 -32 38 -29 13 4 29 -11 59 -59 23 -34 47 -67 53 -73 9 -7 29 1 67 25
62 39 103 43 140 14 14 -11 28 -20 31 -20 4 0 24 16 45 36 37 34 76 62 394
285 74 52 203 144 285 204 83 60 260 187 395 281 135 95 308 218 385 272 77
55 172 120 211 145 39 25 75 52 81 59 16 20 24 82 17 127 -7 43 -9 45 -34 32z"/>
<path d="M1998 3 c1101 -2 2903 -2 4005 0 1101 1 200 2 -2003 2 -2203 0 -3104
-1 -2002 -2z"/>
</g>
</svg>
