<?xml version="1.0" encoding="utf-8"?>
<svg version="1.1" id="Layer_1" xmlns="http://www.w3.org/2000/svg" xmlns:xlink="http://www.w3.org/1999/xlink" x="0px" y="0px"
	 viewBox="0 0 1114 1626" enable-background="new 0 0 1114 1626" xml:space="preserve">
<g>
	<g>
		<g>
			<path d="M17.863,1221.435c14.93,40.413,44.122,59.732,67.392,75.275c258.291,172.425,938.357,121.037,1010.882-75.275
				c0,70.428,0,140.856,0,211.284c-54.142,146.552-474.884,225.886-808.705,152.713c-99.988-21.939-163.49-51.612-202.176-77.438
				c-23.27-15.543-52.462-34.862-67.392-75.275C17.863,1362.291,17.863,1291.863,17.863,1221.435z"/>
			<path d="M17.863,991.147c14.93,40.413,44.122,59.732,67.392,75.275c258.291,172.424,938.357,121.037,1010.882-75.275
				c0,70.428,0,140.856,0,211.284c-54.142,146.552-474.884,225.886-808.705,152.713c-99.988-21.939-163.49-51.612-202.176-77.438
				c-23.27-15.543-52.462-34.862-67.392-75.275C17.863,1132.003,17.863,1061.575,17.863,991.147z"/>
			<path d="M17.863,760.858c14.93,40.413,44.122,59.732,67.392,75.275c258.291,172.424,938.357,121.037,1010.882-75.275
				c0,70.428,0,140.856,0,211.284c-54.142,146.552-474.884,225.886-808.705,152.713c-99.988-21.939-163.49-51.612-202.176-77.438
				c-23.27-15.543-52.462-34.862-67.392-75.275C17.863,901.714,17.863,831.286,17.863,760.858z"/>
			<path d="M17.863,530.57c14.93,40.413,44.122,59.732,67.392,75.275c258.291,172.425,938.357,121.037,1010.882-75.275
				c0,70.428,0,140.856,0,211.284c-54.142,146.552-474.884,225.886-808.705,152.713c-99.988-21.939-163.49-51.612-202.176-77.438
				c-23.27-15.543-52.462-34.862-67.392-75.275C17.863,671.426,17.863,600.998,17.863,530.57z"/>
		</g>
		<ellipse cx="557" cy="510.053" rx="539.137" ry="176.949"/>
	</g>
	<g>
		<path d="M105.289,258.862c-22.992,0-54.079-2.266-63.794-3.885c-5.506-0.972-8.42-3.562-8.42-10.039V27.003
			c0-6.477,2.914-9.067,8.42-10.039c9.715-1.618,40.802-3.885,63.794-3.885c64.765,0,101.681,34.972,101.681,99.091v47.602
			C206.97,223.889,170.054,258.862,105.289,258.862z M162.282,112.169c0-68.448-48.394-61.94-84.196-60.232v168.066
			c35.147,1.676,84.196,8.555,84.196-60.232V112.169z"/>
		<path d="M385.388,254.329c-10.362,1.618-22.992,4.533-61.527,4.533c-42.097,0-74.804-11.333-74.804-66.384V79.463
			c0-55.051,32.707-66.384,74.804-66.384c38.535,0,51.165,2.914,61.527,4.533c4.857,0.649,6.476,2.267,6.476,6.801v20.725
			c0,3.562-2.914,6.476-6.476,6.476h-66.061c-30.444,0-25.582,17.681-25.582,62.823h87.756c3.562,0,6.476,2.914,6.476,6.476v23.315
			c0,3.563-2.914,6.477-6.476,6.477h-87.756v41.773c0,21.372,6.801,27.85,25.582,27.85h66.061c3.562,0,6.476,2.914,6.476,6.476
			v20.725C391.864,252.062,390.245,253.682,385.388,254.329z"/>
		<path d="M565.425,254.329c-9.715,2.267-37.888,4.533-55.051,4.533c-42.097,0-74.804-11.333-74.804-66.384V22.145
			c0-3.562,2.914-6.476,6.476-6.476h32.059c3.562,0,6.476,2.914,6.476,6.476v170.333c0,21.372,6.477,27.85,25.259,27.85h59.585
			c3.562,0,6.476,2.914,6.476,6.476v20.725C571.901,252.062,570.282,253.357,565.425,254.329z"/>
		<path d="M676.488,166.571c-8.421,0-21.374-0.972-28.822-1.295v84.519c0,3.562-2.59,6.476-6.153,6.476h-32.382
			c-3.561,0-6.475-2.914-6.475-6.476V27.003c0-6.477,3.885-8.743,10.362-9.715c16.838-2.591,39.83-4.209,63.47-4.209
			c49.869,0,93.262,17.486,93.262,74.804v2.914C769.75,148.113,726.357,166.571,676.488,166.571z M676.488,50.318
			c-6.802,0-22.993,0.648-28.822,1.295v77.071c41.525,2.599,77.395,3.686,77.395-37.887
			C725.062,65.307,715.616,50.318,676.488,50.318z"/>
		<path d="M980.875,256.272h-32.058c-3.563,0-6.477-2.914-6.477-6.476v-99.091h-91.967v99.091c0,3.562-2.914,6.476-6.475,6.476
			h-32.06c-3.561,0-6.475-2.914-6.475-6.476V21.822c0-3.562,2.914-6.153,6.475-6.153h32.06c3.561,0,6.475,2.591,6.475,6.153v89.376
			h91.967V21.822c0-3.562,2.914-6.153,6.477-6.153h32.058c3.563,0,6.477,2.591,6.477,6.153v227.974
			C987.353,253.357,984.438,256.272,980.875,256.272z"/>
		<path d="M1074.45,256.272h-32.06c-3.561,0-6.475-2.914-6.475-6.476V21.822c0-3.562,2.914-6.153,6.475-6.153h32.06
			c3.561,0,6.475,2.591,6.475,6.153v227.974C1080.925,253.357,1078.011,256.272,1074.45,256.272z"/>
	</g>
</g>
</svg>
